<?xml version="1.0" encoding="UTF-8"?>
<svg width="151.01mm" height="179.33mm" version="1.1" viewBox="0 0 535.08679 635.43305" xmlns="http://www.w3.org/2000/svg">
 <defs>
  <linearGradient id="c" x1="-270.08" x2="-268.41" y1="460.09" y2="460.09" gradientTransform="matrix(91.076 103 103 -91.076 -21978 69836)" gradientUnits="userSpaceOnUse">
   <stop stop-color="#FFD8BF" offset="0"/>
   <stop stop-color="#BF7400" offset=".5393"/>
   <stop offset="1"/>
  </linearGradient>
  <linearGradient id="d" x1="-270.09" x2="-268.4" y1="460.1" y2="460.1" gradientTransform="matrix(91.076 103 103 -91.076 -21978 69836)" gradientUnits="userSpaceOnUse">
   <stop stop-color="#F3C192" offset="0"/>
   <stop stop-color="#D49035" offset=".5393"/>
   <stop stop-color="#765735" offset="1"/>
  </linearGradient>
 </defs>
 <g transform="translate(-36.85 -49.215)">
  <g transform="matrix(4.5717 0 0 4.5717 -3701.3 -592.2)">
   <rect x="839.31" y="189.27" width="76.352" height="74.05" ry="13.677" fill="#f9f9f9" stroke="#000" stroke-linecap="round" stroke-width="1.5213"/>
   <path d="m914.36 246.21c0 20.805-19.947 28.136-37.824 27.678-19.853-0.50996-37.22-10.825-34.601-32.728 2.2545-18.862 17.102-40.489 38.205-39.239 21.52 1.2744 34.22 24.847 34.22 44.288" fill="#fff"/>
   <path d="m878.46 202.66c-20.532 0-34.375 21.648-35.904 40.156-1.7663 21.414 16.905 30.279 35.752 30.279-17.098 0-35.48-7.6647-34.62-27.419 0.82335-18.922 15.639-33.844 34.758-33.844 18.21 0 32.21 13.36 33.711 31.399 1.7219 20.722-15.215 29.864-33.821 29.864 18.2 0 35.978-8.46 35.172-28.997-0.74093-18.925-13.916-41.438-35.048-41.438" fill="#fff"/>
   <path d="m851.95 215.35c-11.48 14.377-17.781 40.63 0.18206 52.617 14.61 9.7462 41.315 9.9455 54.736-2.1992 14.161-12.815 8.2073-37.282-2.144-50.552-14.226-18.232-38.397-17.829-52.775 0.13405m-9.6783 31.506c0-20.222 14.966-45.593 37.782-44.267 20.55 1.1938 32.887 23.045 33.59 41.657 0.74546 19.76-15.487 28.482-33.34 28.952-17.056 0.45108-38.032-5.9419-38.032-26.342" fill="#282828"/>
   <path d="m878.4 263.3c-12.126 0-26.763-1.8179-35.605-11.09 3.1068 15.455 19.617 20.602 33.506 20.98 14.889 0.40579 33.189-3.9873 36.749-20.775-8.5832 9.1249-22.807 10.886-34.65 10.886" fill="#f00"/>
   <path d="m878.46 202.27c19.276 0 31.981 19.486 34.005 36.841 2.3405 20.069-11.666 30.978-30.575 32.003-16.973 0.91756-38.722-5.2934-38.722-25.795 0-18.774 12.911-41.569 33.48-42.996-20.602 1.394-33.85 23.71-34.608 42.555-0.86411 21.445 19.797 29.083 38.092 28.612 18.982-0.48821 35.26-10.343 33.684-31.133-1.4112-18.596-14.666-40.088-35.355-40.088" fill="#282828"/>
   <path d="m906.66 183.95c0 15.234-13.319 27.124-28.224 27.124s-28.223-11.888-28.223-27.124c0-15.239 13.31-27.138 28.223-27.138 14.915 0 28.224 11.897 28.224 27.138" fill="#fcd095"/>
   <path d="m859.5 173.77c6.4356-7.5343 17.661-9.3975 26.886-6.8513 10.115 2.7916 15.252 10.968 16.781 20.921 2.2482-14.8-10.109-27.633-24.738-27.633-14.646 0-26.979 12.843-24.736 27.645 0.76358-4.9601 2.5099-10.21 5.807-14.082" fill="#ffe2ae"/>
   <path d="m905.64 180.69c-1.5661 12.05-8.1792 21.264-20.769 23.462-15.407 2.6929-31.568-7.1647-33.646-23.459-2.2699 16.72 12.705 30.611 29.008 29.589 15.066-0.94383 27.366-14.308 25.407-29.593" fill="#fabb78"/>
   <path d="m851.19 180.76c-0.7364 1.5344-0.35144 3.6494-0.12047 5.2372-0.13858-1.7427-0.0978-3.5036 0.12047-5.2372m54.03-2.5136c3.5344 15.318-7.9944 29.959-23.221 31.872-8.3305 1.0489-16.896-1.6748-22.968-7.5044-5.4727-5.2581-6.9872-12.151-9.6085-18.774 0 15.815 13.608 28 29.004 28 17.244 0 31.945-15.518 28.505-33.063 0.14493 0.33061 0.12138 0.61412-0.0734 0.85506-0.63857-0.34511-1.1839-0.80706-1.6386-1.385m1.038-1.5733c0.0308 0.6739 0.0308 0.6739 0 0m-0.0281-0.4701c0.0308 0.50542 0.0308 0.50542 0 0m-0.0226-0.27445c0.0208 0.25633 7e-3 0.0679 0 0" fill="url(#c)"/>
   <path d="m898.52 160.74c4.8179 4.8985 7.4881 9.171 7.7707 16.428-0.0145-0.42934-5.4347-5.0914-6.2608-5.7644-2.0299-1.6558-4.3704 1.8804-6.3522 2.8931-5.0099 2.5625-12.625 4.5162-18.145 2.6902-2.9501-0.97462-6.374-2.9519-9.5696-1.9809-1.8496 0.56339-3.0326 2.1775-3.7653 3.884-0.74455 1.731-0.85234 8.6747-1.9764 9.4084-0.42752 0.27626-4.0543-7.951-4.5371-8.6837-5.8794-8.902-5.7363 6.6521-5.0362 6.4754-3.7798 0.94111-0.82698-15.041-0.26811-16.295 2.6548-5.961 7.4908-10.561 13.338-13.358 10.576-5.0597 26.183-4.5226 34.802 4.3025" fill="#888a85"/>
   <path d="m848.48 179.12c0.0697 1.6177 1.029 3.4112 1.029 4.913-0.20471-0.48007 0.91484 2.2255 1.1449 2.0516 0.37047-2.4637-1.6802-4.5606-2.1739-6.9646m49.85-10.921c-0.65306 0-2.8777 2.4556-3.5543 2.875-1.9791 1.2246-4.1802 2.0788-6.4184 2.6992-5.9311 1.644-10.645 1.0009-16.513 0.0326-3.4048-0.55978-6.3631-2.6005-8.8595 0.71828-0.96194 1.2781-3.4211 11.37-3.1539 11.37-1.2781 0-3.6268-7.3912-4.3079-8.4899-0.80524-1.3025-3.2653-3.2527-4.8197-2.0172-1.6069 1.2753-0.78984 4.7101-0.53441 6.3722-0.68024-3.6168 1.5389-5.0941 4.5461-3.2173 1.1784 1.1286 4.3686 9.9138 5.4519 9.7797 0.37228-0.0861 1.7844-9.1394 2.5462-10.483 1.0561-1.8686 2.75-3.0652 4.9302-3.0652 3.7336 0.12771 6.9637 2.7789 10.656 2.7789 4.6874 0 9.4917-0.70923 13.832-2.538 1.4474-0.6105 5.3677-4.3822 6.4972-4.3822 2.9583-0.57517 4.9003 6.7064 7.5551 6.7064 0.41576 0-0.27355-3.9682-0.32065-4.2327 0.37409 0.69111 0.37953 1.2926 0.019 1.8052-2.8106-9.1e-4 -4.3967-6.7128-7.5515-6.7128" fill="#2e3436"/>
   <path d="m894.65 168.61c0 8.6475-31.724 7.8676-31.724 0.57699 5.8296 1.2744 12.28 2.3333 18.241 1.7174 1.548-0.16213 13.483-4.4374 13.483-2.2944" fill="#babdb6"/>
   <path d="m905.57 171.6c0.55162 2.3442 0.90488 4.7997 1.3723 7.1684-0.15036-2.4311-0.54709-4.8686-1.3723-7.1684" fill="#f3d4b2"/>
   <path d="m851.99 177.51c-0.47825 0-0.75724 2.9012-0.80162 3.2409-0.0815 0.173 0.0317-0.0806 0.0317-0.0652 0.52717-1.0217 1.6069-1.019 2.5634-0.67118 0.34873-1.8732 0.3759-2.5045-1.7934-2.5045m44.449-4.951c-3.3052 2.5561-7.5533 3.8315-11.623 4.4836-5.9592 0.95923-9.1846-0.56611-14.832-1.951-7.5026-1.8406-9.066 6.4256-9.4962 12.193 0.13496 0.55434 0.0154 0.89944-0.3605 1.0389-1.9864-2.3777-2.6304-5.7191-4.2472-8.3857-0.30163 0.73277 3.7862 10.665 4.9329 10.665 2.0951 0 0.15308-15.241 9.3586-13.346 5.6557 1.1612 9.162 3.0289 15.171 2.0906 4.4139-0.69112 9.1837-2.106 12.576-5.1584-0.46195-0.57155-0.95379-1.1141-1.4791-1.6295m2.7364-1.7427c1.9203 2.7228 3.7083 5.0017 6.0443 7.4211-0.66304-2.8777-3.3976-5.9791-6.0443-7.4211" fill="#f2bd7e"/>
   <path d="m854.2 178.24c-0.74455 2.7554-0.62952 1.1585 1.3107 2.6657 0.50905-1.3641-0.12047-2.0081-1.3107-2.6657m44.431-7.6058c-0.596 0-1.7418 1.5878-2.1811 1.9275 0.52535 0.51539 1.0172 1.058 1.4773 1.6304 1.4918-1.3406 1.4764-1.6657 3.1548-0.18206-0.38496-0.78079-1.3297-3.3758-2.451-3.3758" fill="#f3c58a"/>
   <path d="m851.08 185.99c0.0978 0.78078 0.19474 1.5616 0.29347 2.3414-0.0362-0.78622-0.13496-1.567-0.29347-2.3414m0.15127-5.3052" fill="#f1b26f"/>
   <path d="m851.82 177.52c-1.9275 0.17572-1.7355 3.0534-1.6349 4.3432-3e-3 -0.0181 0.68568 4.0806 0.47192 4.221-0.35779-0.66394-0.83966-1.2953-1.1422-2.0398 0.11323 0.51539 1.0081 4.3405 1.8098 4.3405-1.3279 0 0.22101-9.8132 0.49546-10.865m54.397-1.5996c0.0299 0.41666 0.0534 0.83061 0.0707 1.2473 0.0172 0.10779-0.019 0.16394-0.10507 0.17028-0.61412-0.32789-1.1404-0.76901-1.5761-1.3261 0.25362 0.76901 0.70289 3.6104 2.2599 3.6104 0.46376 9e-4 -0.58332-3.4873-0.64945-3.7019" fill="url(#d)"/>
   <path d="m860.26 188.27c-0.0362 0.0389-0.077 0.0598-0.125 0.0598 0.0417-0.0208 0.0833-0.0426 0.125-0.0598m-9.6874-2.211c0.0226 0.0127 0.0444 0.0245 0.067 0.0362-0.0226-0.0118-0.0444-0.0236-0.067-0.0362m-0.60597-1.0181c0.0598 0.11323 0.11957 0.22917 0.17844 0.34239-0.0598-0.11322-0.11956-0.22916-0.17844-0.34239m-0.173-0.35416c0.0969 0.19565 0.0969 0.19565 0 0m-0.16848-0.3759c0.12681 0.28351 0.12681 0.28351 0 0m-0.1105-0.27083c0 0.0118 0.17753 0.44927 0 0m2.4846-6.5244c-0.33242 0.10688-0.66213 0.21467-0.99546 0.32155 1.4565-0.68205 4.0869 0.94383 3.7119 0.70923-0.81883-0.58695-1.7246-0.93205-2.7164-1.0308m54.252-0.19293c-0.0226 5e-3 -0.0453 0.0145-0.067 0.0208 0.0217-6e-3 0.0444-0.0154 0.067-0.0208m0.01-0.74274c6e-3 0.11956 6e-3 0.11956 0 0m-0.0335-0.5326c0.0127 0.20289 0.0127 0.20289 0 0m-38.414-1.269c1.5163 0.10689 2.9818 0.44022 4.3958 1.0036-1.4121-0.50361-2.884-0.96194-4.3958-1.0036m-0.16938 0c-0.21648 0-0.21648 0 0 0m35.048-0.78984c0.38224 0.40851 0.76719 0.81611 1.1503 1.2246-0.38315-0.40851-0.76539-0.81611-1.1503-1.2246m2.8559-2.442c0.32789 1.3967 0.54709 2.8088 0.6585 4.2391-0.0661-0.8288-0.34057-3.4085-0.6585-4.2391m-6.9193-0.9094c-0.28351 0.0806-0.28351 0.0806 0 0" fill="#d69c5d"/>
   <path d="m850.65 186.09c-0.0254 9e-3 -0.0254 9e-3 0 0m-1.1449-2.0516c0 0.47282 0.81792 1.7989 1.0589 2.0217-0.43568-0.62861-0.78984-1.3007-1.0589-2.0217m0.86502-0.43839c0-0.90035 0.37681 2.4184 0.27989 2.49 0.0181-0.83966-0.0761-1.6712-0.27989-2.49m4.7119-4.7391c0.94382 1.221 3.7726 9.47 5.0443 9.47-2.4737-2.5416-2.5172-6.8758-5.0443-9.47m-0.37409-0.3134m-3.7119-0.70832c-1.0262 0.81883-1.0108 2.9193-0.81792 4.0307-0.0924-1.1685-0.26087-3.1612 0.81792-4.0307m55.284-0.66485c-0.0507 0.19656-0.0507 0.19656 0 0m-2.4465-1.9601c0.42028 0.51811 1.6087 2.1304 2.3414 2.1304-0.90126-0.56974-1.682-1.2808-2.3414-2.1304m-36.362-0.43478c-2.115 0.0498-3.7445 1.2563-4.768 3.0652-0.76177 1.3424-2.173 10.397-2.5462 10.483 0.33967-0.17844 0.44836-0.52445 0.3279-1.0362 0.30343-4.3043 1.1422-12.375 6.9863-12.512m0.16304 0c0.3451-4e-3 0.6893 0.0208 1.0317 0.0679-0.34419-0.0236-0.68748-0.0471-1.0317-0.0679m30.772-4.0814c-3.9583 2.6394-6.7336 4.9247-11.654 5.9872-6.7363 1.4565-10.685-0.2201-17.035-1.6503 5.6738 1.2817 9.0361 2.9791 15.038 2.0226 5.7554-0.91394 9.0642-3.3034 13.651-6.3595m0.21376-0.0598c-9.1e-4 0-9.1e-4 0 0 0 1.7156 0.68206 2.9465 2.2083 4.211 3.5099-0.81339-0.83694-2.7699-3.5099-4.211-3.5099" fill="#2e3436"/>
   <path d="m849.23 181.51c0-16.944 16.684-28.328 32.618-26.492 17.385 2.0045 30.823 19.709 23.126 36.74 10.477-18.846-7.105-40.067-26.837-40.067-19.734 0-37.13 21.288-26.685 40.07-1.4529-3.2146-2.2219-6.72-2.2219-10.251" fill="#2e3436"/>
   <path d="m859.25 206h38.632v8.5579c-13.056 2.616-25.397 2.7613-38.632 0z" fill="#ccc" stroke="#000" stroke-linecap="round" stroke-width=".76036"/>
   <rect x="861.58" y="225.54" width="38.825" height="37.655" ry="6.9548" fill="#f9f9f9" stroke="#000" stroke-linecap="round" stroke-width=".77361"/>
   <g transform="matrix(.25326 0 0 .25326 767.97 98.125)">
    <path transform="matrix(.71429 0 0 .71429 348.82 422.93)" d="m1.7188 0.21875c-1.6565 4.222-0.88405 10.007 1.2812 14 4.4323 1.677 5.666-5.7173 7.844-8.0628-0.834-3.0966-5.3833-4.8902-8.344-6.2812l-0.7812 0.34375z" color="#000000" fill="#fff"/>
    <path transform="matrix(.71429 0 0 .71429 383.1 439.36)" d="m7.9688 0.9375c-3.8495 2.9421-6.4438 8.2547-7.1875 13 2.4425 2.5662 6.8128-1.4828 9.9375-1.25 5.8847-2.1538 13.671-2.0491 18.469-5.5-2.998-3.6082-9.422-3.105-13.657-4.9342-2.496-0.4791-5.013-1.2797-7.5622-1.3158z" color="#000000" fill="#fff"/>
    <path transform="matrix(.71429 0 0 .71429 351.68 426.5)" d="m8 1c-3.443 3.84-6.8314 8.993-7.6562 14.125 13.337 6.769 27.908 11.779 41.718 17.844 4.122-2.594 4.971-9.617 7.876-13.813-3.28-4.363-11.165-5.167-16.228-8.135-8.541-3.2282-16.918-7.8688-25.71-10.021z" color="#000000" fill="#fff"/>
    <path transform="matrix(.71429 0 0 .71429 323.82 347.93)" d="m6.1562 0.75c-8.2542-1.7725-4.6495 7.0827-4.6875 11.906 1.6821 15 5.285 30.228 12.719 43.375 2.4815 2.4902 8.9958 0.87569 6.4987-3.482-3.836-17.187-6.287-34.835-9.374-52.018-1.6621-0.35073-3.4595 0.21459-5.1558 0.219z" color="#000000" fill="#fff"/>
    <path transform="matrix(.71429 0 0 .71429 331.68 299.36)" d="m292.78-0.03125c-3.4931 3.0494 0.0717 8.849-0.71875 12.875 0.4291 26.748 1.1137 53.845-2.8318 80.316-2.9224 13.937-4.155 29.63-15.481 39.496-22.931 25.554-55.158 42.062-89.208 46.833-34.402 4.371-70.297 3.1542-103.57-7.0205-22.406-7.3545-44.508-20.575-56.5-41.312-7.757-16.95-8.121-36.262-10.893-54.498-2.035-12.478-0.982-25.446-3.7958-37.724-3.4864-2.753-3.5199 4.289-3.7812 6.281 0.2232 8.2856-3.5483 15.716-4.4375 23.75 2.1257 22.492 6.2047 45.046 12.875 66.656 12.344 23.275 36.458 37.928 60.656 46.562 40.339 12.987 84.432 14.232 125.66 4.5593 31.394-7.4887 60.714-23.712 83.021-47.209 10.711-22.83 16.956-48.043 18.848-73.256 0.0681-7.0603-4.3866-13.062-3.346-20.279 0.0699-11.07-1.5685-22.721 0.25229-33.502 2.4991-1.378 5.7156-6.5867 1.0312-7.25-4.95 1.4858-3.82-5.023-7.77-5.2842z" color="#000000" fill="#fff"/>
    <path transform="matrix(.71429 0 0 .71429 499.53 200.07)" d="m1.2188 0.84375c-2.8221 2.5735 1.416 7.0019 1.281 10.249 4.7243 16.52 5.4206 33.96 3.969 50.938 5.16 5.7978 13.851 7.2195 20.068 11.858 7.2485 3.3528 12.667 10.226 20.339 12.392 3.9529-2.2968 9.6316-0.97322 13.688 0.6875 7.2421 5.5216 6.1628 16.182 7.625 24.25 1.155 9.5157 0.81473 19.41 2.5312 28.719 3.2667-0.46736 11.005 2.3746 11.406-3 0.60395-9.0159-5.5649-16.431-5.0443-25.372-2.172-18.853-6.124-37.789-12.77-55.56-13.135-25.109-35.646-45.505-62.25-55.219-0.2813 0.01501-0.5694-0.03988-0.8432 0.06275z" color="#000000" fill="#fff"/>
    <path transform="matrix(.71429 0 0 .71429 333.1 233.64)" d="m143.59 1.25c-37.53 0.9362-76.769 7.1646-108.68 27.938-9.06 5.849-18.043 13.164-20.534 24.262-5.2208 13.407-4.519 28.068-7.9385 41.769-0.67167 2.696-4.6152-0.05057-5 3.4688-1.7959 4.0179 4.5484 5.0488 3.2812 9.0938 0.9395 7.79-1.2652 16.33 1.4063 23.72 4.1 1.35 3.5999-5.68 3.875-8.12 2.375-24.071 6.165-48.618 14.5-71.255 9.326-13.354 25.39-20.319 40.484-25.46 43.596-13.145 90.606-13.725 135.4-6.634 24.629 4.4431 49.049 12.236 70.344 25.531 8.21 7.4529 9.8396 19.522 13.625 29.531 2.2992 5.6671 2.1676 13.253 6.4062 17.844 4.2608-1.0296 1.8671-7.5089 2.0625-10.719-1.97-12.593-3.45-26.127-10.35-37.062-17.64-19.283-43.17-29.465-67.88-36.344-23.2-5.5969-47.14-7.8609-71-7.562z" color="#000000" fill="#fff"/>
    <path transform="matrix(.71429 0 0 .71429 323.82 204.36)" d="m69 0c-22.684 11.655-41.89 31.054-53.027 54.072-7.2621 18.816-11.844 38.891-12.723 59.018-2.5892 6.53-2.9277 13.97-1.9375 20.79 7.1697 2.2431 11.763-1.1046 10.195-8.7609 1.6428-14.057 0.65521-28.963 6.1175-42.177 3.5761-5.8848 11.276-6.0799 17.281-4.5 7.996-3.552 14.562-10.096 22.367-14.047 3.061-2.942 10.763-3.222 9.039-9.02-2.74-18.18 1.044-36.312 4.782-54-0.135-1.0217-1.124-1.5779-2.094-1.375z" color="#000000" fill="#fff"/>
    <path transform="matrix(.71429 0 0 .71429 379.53 187.93)" d="m78.562 1.4688c-23.673 0.5503-47.961 3.5359-69.656 13.219-5.2737 6.33-6.3824 15.411-7.4372 23.343-0.59721 12.857-0.18699 26.029 1.125 38.688 15.945-4.5063 32.683-8.593 49.375-10.281 25.879-1.1203 52.171-1.9585 77.781 2.0938 9.6114 1.5637 19.241 4.0878 28.594 6.1562 4.1789-3.3289 1.8864-10.218 2.8342-14.937 0.3-15.56 1.68-32.484-6.58-46.345-6.86-5.286-16.63-5.1804-24.84-7.4685-16.85-3.1696-34.01-4.7472-51.188-4.4687z" color="#000000" fill="#fff"/>
    <path transform="translate(295.94,180.54)" d="m42.339 49.98s-9.918-1.387-19.569 0.22c-3.824 0.638-16.566 4.462-18.746 7.604-1.018 25.147 2.18 48.465 2.18 48.465l22.062 2.613" fill="#fff"/>
    <path transform="translate(295.94,180.54)" d="m42.339 49.98s-9.918-1.387-19.569 0.22c-3.824 0.638-16.566 4.462-18.746 7.604-1.018 25.147 2.18 48.465 2.18 48.465l22.062 2.613" fill="none" stroke="#010101" stroke-linecap="round" stroke-linejoin="round" stroke-miterlimit="14.3" stroke-width="3.42"/>
    <path transform="translate(295.94,180.54)" d="m16.046 57.828-7.655 0.012c-3.664 9e-3 -6.681 3.026-6.681 6.688v37.621c0 3.664 3.017 6.672 6.681 6.664l15.319-0.026c3.664-9e-3 6.673-3.021 6.673-6.688v-37.621c0-3.66-3.009-6.668-6.673-6.664l-7.664 0.014" fill="#fff"/>
    <path transform="translate(295.94,180.54)" d="m16.046 57.828-7.655 0.012c-3.664 9e-3 -6.681 3.026-6.681 6.688v37.621c0 3.664 3.017 6.672 6.681 6.664l15.319-0.026c3.664-9e-3 6.673-3.021 6.673-6.688v-37.621c0-3.66-3.009-6.668-6.673-6.664l-7.664 0.023z" fill="none" stroke="#010101" stroke-linecap="round" stroke-linejoin="round" stroke-miterlimit="14.3" stroke-width="3.42"/>
    <path transform="translate(295.94,180.54)" d="m5.763 73.719c1.034 5.086 6.173 8.336 11.461 7.258 5.289-1.082 8.733-6.086 7.698-11.168-1.043-5.086-6.176-8.332-11.461-7.254-5.284 1.082-8.736 6.082-7.698 11.164" fill="#aaabaa"/>
    <path transform="translate(295.94,180.54)" d="m5.763 73.719c1.034 5.086 6.173 8.336 11.461 7.258 5.289-1.082 8.733-6.086 7.698-11.168-1.043-5.086-6.176-8.332-11.461-7.254-5.284 1.082-8.736 6.082-7.698 11.164z" fill="none" stroke="#010101" stroke-linecap="round" stroke-linejoin="round" stroke-miterlimit="14.3" stroke-width="3.42"/>
    <path transform="translate(295.94,180.54)" d="m4.912 97.18c1.043 5.086 6.173 8.332 11.461 7.254 5.289-1.082 8.741-6.082 7.702-11.164-1.039-5.086-6.172-8.332-11.461-7.258-5.288 1.082-8.732 6.086-7.702 11.168" fill="#aaabaa"/>
    <path transform="translate(295.94,180.54)" d="m4.912 97.18c1.043 5.086 6.173 8.332 11.461 7.254 5.289-1.082 8.741-6.082 7.702-11.164-1.039-5.086-6.172-8.332-11.461-7.258-5.288 1.082-8.732 6.086-7.702 11.168z" fill="none" stroke="#010101" stroke-linecap="round" stroke-linejoin="round" stroke-miterlimit="14.3" stroke-width="3.42"/>
    <path transform="translate(295.94,180.54)" d="m13.177 72.504c0 4.22 2.142 7.646 4.78 7.646s4.781-3.43 4.781-7.646-2.146-7.647-4.781-7.647c-2.639-2e-3 -4.78 3.427-4.78 7.647" fill="#010101"/>
    <path transform="translate(295.94,180.54)" d="m13.177 72.504c0 4.22 2.142 7.646 4.78 7.646s4.781-3.43 4.781-7.646-2.146-7.647-4.781-7.647c-2.639-2e-3 -4.78 3.427-4.78 7.647z" fill="none" stroke="#010101" stroke-linecap="round" stroke-linejoin="round" stroke-miterlimit="14.3" stroke-width="3.42"/>
    <path transform="translate(295.94,180.54)" d="m12.546 94.805c0 4.219 2.142 7.647 4.776 7.647s4.78-3.432 4.78-7.647c0-4.224-2.146-7.647-4.78-7.647-2.636-1e-3 -4.776 3.424-4.776 7.647" fill="#010101"/>
    <path transform="translate(295.94,180.54)" d="m12.546 94.805c0 4.219 2.142 7.647 4.776 7.647s4.78-3.432 4.78-7.647c0-4.224-2.146-7.647-4.78-7.647-2.636-1e-3 -4.776 3.424-4.776 7.647z" fill="none" stroke="#010101" stroke-linecap="round" stroke-linejoin="round" stroke-miterlimit="14.3" stroke-width="3.42"/>
    <path transform="translate(295.94,180.54)" d="m246.96 50.008s9.918-1.392 19.574 0.215c3.819 0.641 16.565 4.461 18.746 7.604 1.012 25.15-2.185 48.465-2.185 48.465l-22.057 2.611" fill="#fff"/>
    <path transform="translate(295.94,180.54)" d="m246.96 50.008s9.918-1.392 19.574 0.215c3.819 0.641 16.565 4.461 18.746 7.604 1.012 25.15-2.185 48.465-2.185 48.465l-22.057 2.611" fill="none" stroke="#010101" stroke-linecap="round" stroke-linejoin="round" stroke-miterlimit="14.3" stroke-width="3.42"/>
    <path transform="translate(295.94,180.54)" d="m273.22 57.887 7.664 0.016c3.656 5e-3 6.674 3.027 6.674 6.686v37.621c0 3.664-3.018 6.672-6.674 6.664l-15.318-0.027c-3.664-4e-3 -6.682-3.022-6.682-6.688v-37.621c0-3.66 3.018-6.668 6.682-6.66l7.654 9e-3" fill="#fff"/>
    <polyline transform="translate(295.94,180.54)" points="259.22 213.15 259.23 212.54 259.28 211.94 259.35 211.36 259.44 210.81 259.57 210.3 259.72 209.84 259.88 209.44 260.07 209.1 260.27 208.82 260.48 208.63 260.7 208.51 260.92 208.47 261.15 208.51 261.37 208.63 261.58 208.82 261.78 209.1 261.97 209.44 262.14 209.84 262.28 210.3 262.4 210.81 262.5 211.36 262.58 211.94 262.62 212.54 262.64 213.15 262.62 213.76 262.58 214.36 262.5 214.94 262.4 215.49 262.28 216 262.14 216.46 261.97 216.86 261.78 217.2 261.58 217.48 261.37 217.67 261.15 217.79 260.92 217.83 260.7 217.79 260.48 217.67 260.27 217.48 260.07 217.2 259.88 216.86 259.72 216.46 259.57 216 259.44 215.49 259.35 214.94 259.28 214.36 259.23 213.76 259.22 213.15" fill="#010101"/>
    <polygon transform="translate(295.94,180.54)" points="37.205 212.41 36.989 212.61 36.771 212.72 36.548 212.77 36.319 212.72 36.101 212.61 35.89 212.41 35.687 212.14 35.502 211.8 35.334 211.4 35.187 210.93 35.062 210.42 34.964 209.88 34.89 209.3 34.851 208.69 34.83 208.08 34.851 207.47 34.89 206.87 34.964 206.29 35.062 205.74 35.187 205.23 35.334 204.78 35.502 204.37 35.687 204.03 35.89 203.76 36.101 203.56 36.319 203.44 36.548 203.4 36.771 203.44 36.989 203.56 37.205 203.76 37.399 204.03 37.587 204.37 37.751 204.78 37.898 205.23 38.023 205.74 38.126 206.29 38.196 206.87 38.243 207.47 38.251 208.08 38.243 208.69 38.196 209.3 38.126 209.88 38.023 210.42 37.898 210.93 37.751 211.4 37.587 211.8 37.399 212.14" fill="#010101"/>
    <polygon transform="translate(295.94,180.54)" points="25.275 134.22 25.702 122.24 25.831 120.88 25.718 121.97 26.479 108.72 26.501 108.47 27.642 93.909 27.97 91.996 28.13 91.518 27.72 93.174 29.505 80.811 30.112 78.69 30.312 78.362 29.709 79.78 32.718 68.405 33.554 66.725 32.95 67.702 37.099 57.305 37.306 56.856 42.495 47.407 42.667 47.135 48.813 38.623 48.955 38.446 55.959 30.844 56.075 30.731 63.839 24.028 63.937 23.954 72.374 18.127 72.456 18.071 81.478 13.102 81.546 13.063 91.056 8.926 91.114 8.899 101.02 5.575 101.07 5.56 111.27 3.032 111.32 3.021 121.73 1.271 121.78 1.262 132.31 0.267 132.34 0.262 142.9 0 142.94 0 153.42 0.457 153.46 0.457 168.17 2.043 168.22 2.052 181.74 4.448 181.8 4.455 194.17 7.666 194.23 7.683 205.48 11.718 205.55 11.748 215.7 16.628 215.79 16.675 224.87 22.395 224.97 22.477 233.02 29.054 233.14 29.175 240.16 36.623 240.31 36.808 246.35 45.136 246.53 45.412 251.61 54.636 251.8 55.037 255.95 65.157 256.15 65.714 259.4 76.741 258.98 75.72 259.57 77.443 261.95 89.392 261.59 88.134 262.07 90.181 263.61 103.06 263.41 101.9 263.52 102.46 263.68 103.85 264.4 117.68 264.37 117.24 264.41 117.87 264.42 118.39 264.36 133.17 264.33 133.9 264.28 134.52 264.35 133.66 263.71 148.47 263.55 149.95 263.69 148.79 262.78 161.99 262.76 162.28 261.68 173.74 261.65 174.01 260.52 183.64 260.49 183.88 259.42 191.55 259.39 191.77 258.48 197.38 258.45 197.57 257.83 201.02 257.8 201.18 257.56 202.35 256.81 204.32 257.26 203.47 256.14 206.46 261.18 208.52 260.68 217.78 252.22 214.32 252.36 214.36 252.13 214.27 251.9 214.1 251.69 213.84 251.49 213.51 251.31 213.11 251.15 212.64 251.01 212.12 250.91 211.55 250.83 210.95 250.78 210.32 250.76 209.69 250.78 209.05 250.83 208.43 250.91 207.82 251.01 207.26 251.15 206.74 251.31 206.27 251.49 205.86 251.69 205.53 251.28 206.34 254.68 197.26 254.78 196.79 255.37 193.51 256.25 188.1 257.28 180.65 258.39 171.28 259.44 160.1 260.33 147.22 260.95 132.81 261.01 118.64 260.32 105.58 258.89 93.494 256.65 82.291 253.58 71.89 249.63 62.248 244.73 53.366 238.86 45.267 231.97 37.966 224.05 31.481 215.07 25.821 205 20.985 193.82 16.974 181.5 13.778 168.02 11.392 153.36 9.813 142.91 9.356 132.41 9.623 121.92 10.614 111.56 12.356 101.41 14.873 91.572 18.183 82.128 22.295 73.184 27.226 64.83 32.996 57.171 39.612 50.304 47.065 44.32 55.358 39.324 64.453 35.402 74.289 32.617 84.797 30.97 96.25 29.865 110.31 29.119 123.29 28.701 134.98 28.568 145.43 28.685 154.7 29 162.85 29.478 169.93 30.068 175.99 30.724 181.11 31.419 185.33 32.099 188.73 32.74 191.35 33.279 193.25 33.693 194.5 33.943 195.14 34.021 195.33 34.076 195.47 37.718 204.65 35.382 211.53 31.772 202.41 31.687 202.2 31.604 202.01 31.276 201.16 31.194 200.92 30.694 199.42 30.608 199.15 29.983 196.96 29.907 196.66 29.204 193.73 29.13 193.41 28.376 189.68 28.317 189.34 27.563 184.77 27.515 184.41 26.804 178.94 27.038 180.15 26.765 178.58 26.14 172.16 26.288 173.16 26.112 171.8 25.612 164.36 25.677 165.03 25.595 164.01 25.263 155.52 25.271 155.71 25.255 155.19 25.134 145.59 25.134 145.22 25.134 145.28 25.271 134.51 25.31 133.61" fill="#010101"/>
    <path transform="translate(295.94,180.54)" d="m245.38 201.94s6.091-16.146 8.353-53.829c2.043-33.986-13.642-61.74-13.642-61.74s-24.022-32.496-97.009-32.496c-72.985 0-95.056 32.5-95.056 32.5s-10.366 27.318-12.062 55.021c-1.693 27.703 5.272 55.777 5.272 55.777" fill="none" stroke="#010101" stroke-linecap="round" stroke-linejoin="round" stroke-miterlimit="11.5" stroke-width="2.564"/>
    <path transform="translate(295.94,180.54)" d="m35.643 208.98s0.871 6.234 4.694 13.242c6.116 11.219 12.108 19.115 12.108 19.115l1.836 15.713 32.896 13.461s17.022-5.6 25.798-5.6c8.772 0 31.219 2.715 50.957-0.172 19.732-2.885 45.448-14.607 57.996-21.492 19.75-10.826 30.819-31.383 30.819-31.383" fill="none" stroke="#010101" stroke-linecap="round" stroke-linejoin="round" stroke-miterlimit="11.5" stroke-width="3.42"/>
    <path transform="translate(295.94,180.54)" d="m245.31 201.48-5.979 15.557s-32.293 44.529-110.68 39.479c-71.292-4.6-84.352-44.27-84.352-44.27l-3.935-19.336" fill="none" stroke="#010101" stroke-linecap="round" stroke-linejoin="round" stroke-miterlimit="11.5" stroke-width="2.564"/>
    <polyline transform="translate(295.94,180.54)" points="232.07 91.5 231.72 91.239 230.66 90.491 228.86 89.323 226.33 87.801 223.04 85.996 219 83.989 214.19 81.852 208.63 79.659 202.29 77.489 195.17 75.402 187.28 73.489 178.58 71.812 169.11 70.453 158.83 69.484 147.75 68.977 135.86 69.004 124.15 69.559 113.6 70.539 104.15 71.875 95.74 73.508 88.334 75.366 81.865 77.391 76.283 79.52 71.529 81.684 67.552 83.82 64.296 85.859 61.709 87.741 59.732 89.402 58.307 90.782 57.388 91.801 56.904 92.409 56.768 92.609 56.193 93.148 56.373 93.032 56.341 93.055 56.158 93.395 55.634 94.684 54.959 96.609 53.311 102.14 51.494 109.39 49.693 117.96 48.084 127.46 46.857 137.5 46.177 147.68 46.225 156.34 46.83 165.77 47.826 175.37 49.037 184.53 50.283 192.67 51.396 199.19 51.839 201.66 52.186 203.51 52.404 204.66 52.436 204.8 52.479 204.93 52.912 206.04 53.775 207.9 55.166 210.37 57.171 213.35 59.888 216.72 63.396 220.35 67.802 224.12 73.177 227.91 79.623 231.58 87.225 235.02 96.061 238.09 106.23 240.68 117.82 242.64 130.91 243.87 145.58 244.23 157.75 243.66 168.91 242.23 179.1 240.06 188.34 237.27 196.67 233.99 204.12 230.35 210.71 226.47 216.48 222.48 221.46 218.5 225.66 214.66 229.14 211.09 231.9 207.9 233.99 205.22 235.44 203.18 236.26 201.9 236.29 201.86 238.36 193.78 239.95 186.04 241.07 178.8 241.81 171.77 242.28 164.65 242.57 157.16 242.78 149.06 242.99 140.27 242.55 130.11 241.28 120.77 239.44 112.34 237.3 105.03 235.16 99.027 233.29 94.527 231.97 91.719 231.72 91.239 231.7 91.227 233.06 85.773 233.43 86.047 233.25 85.938 233.47 86.078 234.02 86.797 234.55 87.812 234.6 87.909 235.97 90.84 236.03 90.977 237.97 95.629 238.03 95.805 240.25 102.01 240.32 102.23 242.53 109.8 242.29 109.18 242.6 110.09 244.51 118.84 244.4 118.4 244.58 119.21 245.91 128.96 245.9 128.86 245.95 129.42 246.41 140 246.41 140.04 246.42 140.35 246.19 149.32 246.19 149.32 245.99 157.46 245.99 157.53 245.69 165.12 245.69 165.26 245.2 172.54 245.19 172.74 244.42 179.99 244.39 180.22 243.23 187.7 243.19 187.93 241.55 195.89 241.51 196.09 239.28 204.8 238.92 205.7 238.75 205.96 238.9 205.72 238.62 206.2 238.57 206.29 237.69 207.66 237.63 207.74 236.12 209.88 236.05 209.96 233.9 212.72 233.83 212.81 230.99 216.08 230.92 216.16 227.37 219.82 227.29 219.89 223.01 223.8 222.93 223.87 217.87 227.91 217.79 227.97 211.94 232.02 211.85 232.07 205.18 236 205.08 236.05 197.55 239.73 197.47 239.77 189.05 243.08 188.97 243.11 179.64 245.92 179.55 245.95 169.29 248.14 169.2 248.15 157.96 249.6 157.88 249.61 145.64 250.17 145.57 250.18 130.83 249.81 130.76 249.81 117.6 248.57 117.53 248.56 105.86 246.58 105.78 246.56 95.529 243.96 95.439 243.93 86.507 240.83 86.412 240.79 78.709 237.31 78.611 237.26 72.061 233.52 71.951 233.46 66.459 229.59 66.341 229.5 61.826 225.63 61.709 225.52 58.076 221.77 57.959 221.63 55.123 218.11 55.007 217.95 52.882 214.8 52.771 214.62 51.275 211.95 51.171 211.75 50.209 209.69 50.115 209.48 49.604 208.15 49.529 207.95 49.382 207.48 49.529 207.87 49.248 206.98 49.171 206.57 49.166 206.56 48.939 205.38 48.936 205.35 48.584 203.48 48.576 203.45 48.127 200.95 48.119 200.9 46.998 194.32 46.986 194.23 45.725 186.02 45.709 185.91 44.482 176.63 44.466 176.49 43.455 166.72 43.439 166.53 42.818 156.86 42.83 156.98 42.811 156.56 42.757 147.55 42.759 147.34 42.768 147.18 43.466 136.68 43.494 136.38 43.494 136.4 44.748 126.11 44.783 125.89 46.425 116.19 46.459 116.01 48.3 107.27 48.339 107.1 50.201 99.68 50.248 99.5 51.951 93.789 52.007 93.614 52.74 91.508 52.811 91.332 53.439 89.793 53.584 89.484 54.084 88.555 54.475 88.016 54.686 87.836 54.634 87.871 54.979 87.605 54.584 88.027 54.768 87.773 54.85 87.664 55.412 86.945 55.502 86.84 56.513 85.719 56.6 85.629 58.111 84.168 58.201 84.094 60.259 82.359 60.341 82.293 63.013 80.352 63.095 80.297 66.432 78.203 66.502 78.159 70.552 75.989 70.627 75.953 75.451 73.758 75.513 73.727 81.166 71.573 81.225 71.555 87.759 69.512 87.814 69.496 95.283 67.621 95.334 67.609 103.79 65.969 103.84 65.957 113.34 64.616 113.39 64.609 123.99 63.625 124.03 63.625 135.78 63.062 135.83 63.062 147.77 63.032 147.81 63.032 158.95 63.543 158.99 63.547 169.32 64.523 169.36 64.527 178.9 65.895 178.94 65.902 187.68 67.586 187.72 67.598 195.67 69.523 195.72 69.534 202.88 71.633 202.93 71.648 209.31 73.84 209.36 73.855 214.98 76.066 215.02 76.086 219.86 78.241 219.91 78.266 224 80.293 224.05 80.316 227.38 82.145 227.42 82.168 230 83.719 230.05 83.741 231.88 84.945 231.93 84.973 233.02 85.741 233.06 85.773 233.43 86.047 232.07 91.5" fill="#010101"/>
    <path transform="translate(295.94,180.54)" d="m193.66 15.375s5.577 11.16 5.577 21.396c0 10.229-0.93 23.883-0.93 23.883l9.301 4.312s1.859-7.738 0.936-19.824c-0.936-12.09-5.582-26.039-5.582-26.039" fill="none" stroke="#010101" stroke-linecap="round" stroke-linejoin="round" stroke-miterlimit="11.5" stroke-width="2.564"/>
    <path transform="translate(295.94,180.54)" d="m89.8 16.301s-5.582 11.16-5.582 21.387c0 10.234 0.934 24.522 0.934 24.522l-9.301 3.668s-1.863-7.729-0.93-19.819c0.93-12.09 5.576-26.039 5.576-26.039" fill="none" stroke="#010101" stroke-linecap="round" stroke-linejoin="round" stroke-miterlimit="11.5" stroke-width="2.564"/>
    <path transform="translate(295.94,180.54)" d="m33.619 119.99-14.47 0.557s-4.254 9.063-3.448 23.313c0.798 14.255 4.436 23.781 4.436 23.781l15.395-0.5s-1.825-8.492-2.114-23.645c-0.284-15.149 0.201-23.506 0.201-23.506" fill="#fff"/>
    <path transform="translate(295.94,180.54)" d="m33.619 119.99-14.47 0.557s-4.254 9.063-3.448 23.313c0.798 14.255 4.436 23.781 4.436 23.781l15.395-0.5s-1.825-8.492-2.114-23.645c-0.284-15.15 0.201-23.51 0.201-23.51z" fill="none" stroke="#010101" stroke-linecap="round" stroke-linejoin="round" stroke-miterlimit="11.5" stroke-width="3.42"/>
    <path transform="translate(295.94,180.54)" d="m39.373 143.17c0.238 12.737-1.655 23.121-4.219 23.168-2.57 0.047-4.845-10.259-5.078-22.996-0.241-12.737 1.647-23.12 4.216-23.168 2.566-0.047 4.84 10.258 5.081 22.996" fill="#fff"/>
    <path transform="translate(295.94,180.54)" d="m39.373 143.17c0.238 12.737-1.655 23.121-4.219 23.168-2.57 0.047-4.845-10.259-5.078-22.996-0.241-12.737 1.647-23.12 4.216-23.168 2.566-0.05 4.84 10.26 5.081 23z" fill="none" stroke="#010101" stroke-linecap="round" stroke-linejoin="round" stroke-miterlimit="11.5" stroke-width="3.42"/>
    <path transform="translate(295.94,180.54)" d="m40.037 127.35-3.952 0.686s-1.276 7.611-1.393 15.297c-0.107 7.685 0.938 15.435 0.938 15.435l3.953-0.688 0.454-30.73" fill="#010101"/>
    <path transform="translate(295.94,180.54)" d="m40.037 127.35-3.952 0.686s-1.276 7.611-1.393 15.297c-0.107 7.685 0.938 15.435 0.938 15.435l3.953-0.69 0.454-30.73z" fill="none" stroke="#010101" stroke-linecap="round" stroke-linejoin="round" stroke-miterlimit="11.5" stroke-width="3.42"/>
    <path transform="translate(295.94,180.54)" d="m255.88 119.98 14.47 0.553s4.258 9.068 3.457 23.318c-0.806 14.254-4.441 23.781-4.441 23.781l-15.395-0.5s1.832-8.492 2.112-23.646c0.28-15.153-0.203-23.506-0.203-23.506" fill="#fff"/>
    <path transform="translate(295.94,180.54)" d="m255.88 119.98 14.47 0.553s4.258 9.068 3.457 23.318c-0.806 14.254-4.441 23.781-4.441 23.781l-15.395-0.5s1.832-8.492 2.112-23.646c0.27-15.14-0.21-23.5-0.21-23.5z" fill="none" stroke="#010101" stroke-linecap="round" stroke-linejoin="round" stroke-miterlimit="11.5" stroke-width="3.42"/>
    <path transform="translate(295.94,180.54)" d="m250.25 143.27c-0.232 12.738 1.656 23.117 4.22 23.168 2.569 0.047 4.845-10.254 5.086-22.991 0.233-12.745-1.655-23.12-4.224-23.168-2.562-0.052-4.84 10.25-5.082 22.991" fill="#fff"/>
    <path transform="translate(295.94,180.54)" d="m250.25 143.27c-0.232 12.738 1.656 23.117 4.22 23.168 2.569 0.047 4.845-10.254 5.086-22.991 0.233-12.745-1.655-23.12-4.224-23.168-2.56-0.05-4.84 10.25-5.08 22.99z" fill="none" stroke="#010101" stroke-linecap="round" stroke-linejoin="round" stroke-miterlimit="11.5" stroke-width="3.42"/>
    <path transform="translate(295.94,180.54)" d="m249.55 127.34 3.866 0.688s1.259 7.617 1.379 15.298c0.121 7.685-0.896 15.435-0.896 15.435l-3.867-0.69-0.482-30.731" fill="#010101"/>
    <path transform="translate(295.94,180.54)" d="m249.55 127.34 3.866 0.688s1.259 7.617 1.379 15.298c0.121 7.685-0.896 15.435-0.896 15.435l-3.867-0.69-0.48-30.73z" fill="none" stroke="#010101" stroke-linecap="round" stroke-linejoin="round" stroke-miterlimit="11.5" stroke-width="3.42"/>
    <path transform="translate(295.94,180.54)" d="m35.979 119.87s0.909-28.229 3.646-35.521c2.733-7.285 12.75-4.551 12.75-4.551s-7.289 11.84-9.104 30.051c-1.187 11.784 0.906 14.577-7.292 10.021" fill="#fff"/>
    <path transform="translate(295.94,180.54)" d="m253.63 120.78s-0.914-28.232-3.646-35.517c-2.729-7.285-12.746-4.555-12.746-4.555s7.281 11.836 9.104 30.055c1.177 11.78-0.908 14.569 7.288 10.017" fill="#fff"/>
    <path transform="translate(295.94,180.54)" d="m253.63 120.78s-0.914-28.232-3.646-35.517c-2.729-7.285-12.746-4.555-12.746-4.555s7.281 11.836 9.104 30.055c1.18 11.79-0.9 14.58 7.29 10.02z" fill="none" stroke="#010101" stroke-linecap="round" stroke-linejoin="round" stroke-miterlimit="11.5" stroke-width="2.564"/>
    <line transform="translate(295.94,180.54)" x1="35.882" x2="43.529" y1="208.21" y2="208.21" fill="none" stroke="#010101" stroke-miterlimit="14.3" stroke-width="2.564"/>
    <polyline transform="translate(295.94,180.54)" points="51.807 240.06 60.725 245.8 92.583 259.18 115.52 264.28" fill="none" stroke="#010101" stroke-linecap="round" stroke-linejoin="round" stroke-miterlimit="14.3" stroke-width="2.564"/>
    <line transform="translate(295.94,180.54)" x1="86.85" x2="91.314" y1="269.37" y2="259.82" fill="none" stroke="#010101" stroke-linecap="round" stroke-linejoin="round" stroke-miterlimit="14.3" stroke-width="2.564"/>
    <line transform="translate(295.94,180.54)" x1="55.632" x2="60.733" y1="255.99" y2="246.44" fill="none" stroke="#010101" stroke-linecap="round" stroke-linejoin="round" stroke-miterlimit="14.3" stroke-width="2.564"/>
    <line transform="translate(295.94,180.54)" x1="245.49" x2="253.14" y1="201.84" y2="206.94" fill="none" stroke="#010101" stroke-miterlimit="14.3" stroke-width="2.564"/>
    <path transform="translate(295.94,180.54)" d="m86.052 114.22c-2.909 7.926-10.366 12.479-16.642 10.172-6.271-2.309-8.992-10.604-6.078-18.53 2.914-7.918 10.367-12.478 16.643-10.168 6.273 2.303 8.995 10.608 6.077 18.526" fill="#fff"/>
    <path transform="translate(295.94,180.54)" d="m86.052 114.22c-2.909 7.926-10.366 12.479-16.642 10.172-6.271-2.309-8.992-10.604-6.078-18.53 2.914-7.913 10.367-12.473 16.643-10.163 6.273 2.303 8.995 10.603 6.077 18.523z" fill="none" stroke="#010101" stroke-miterlimit="14.3" stroke-width="1.712"/>
    <path transform="translate(295.94,180.54)" d="m95.912 88.164c-1.366 3.724-4.866 5.865-7.812 4.784-2.945-1.087-4.219-4.982-2.854-8.707 1.366-3.724 4.866-5.866 7.812-4.78 2.944 1.082 4.221 4.984 2.854 8.703" fill="#fff"/>
    <path transform="translate(295.94,180.54)" d="m95.912 88.164c-1.366 3.724-4.866 5.865-7.812 4.784-2.945-1.087-4.219-4.982-2.854-8.707 1.366-3.724 4.866-5.866 7.812-4.78 2.944 1.082 4.221 4.984 2.854 8.703z" fill="none" stroke="#010101" stroke-miterlimit="14.3" stroke-width="1.712"/>
    <path transform="translate(295.94,180.54)" d="m265.33 195.45-14.969-1.358s-2.397 3.621-2.97 9.792c-0.573 6.172 0.367 10.496 0.367 10.496l15.356 1.439s-0.231-3.766 0.617-10.293c0.856-6.521 1.599-10.076 1.599-10.076" fill="#fff"/>
    <path transform="translate(295.94,180.54)" d="m265.33 195.45-14.969-1.358s-2.397 3.621-2.97 9.792c-0.573 6.172 0.367 10.496 0.367 10.496l15.356 1.439s-0.231-3.766 0.617-10.293c0.85-6.52 1.59-10.08 1.59-10.08z" fill="none" stroke="#010101" stroke-linecap="round" stroke-linejoin="round" stroke-miterlimit="14.3" stroke-width="3.42"/>
    <path transform="translate(295.94,180.54)" d="m266.35 205.68c-0.72 5.482-2.188 9.818-3.289 9.68-1.095-0.145-1.406-4.711-0.688-10.197 0.711-5.484 2.188-9.824 3.28-9.682 1.104 0.144 1.408 4.711 0.697 10.199" fill="#fff"/>
    <path transform="translate(295.94,180.54)" d="m266.35 205.68c-0.72 5.482-2.188 9.818-3.289 9.68-1.095-0.145-1.406-4.711-0.688-10.197 0.711-5.484 2.188-9.824 3.28-9.682 1.11 0.14 1.41 4.71 0.7 10.2z" fill="none" stroke="#010101" stroke-linecap="round" stroke-linejoin="round" stroke-miterlimit="14.3" stroke-width="3.42"/>
    <path transform="translate(295.94,180.54)" d="m241.72 179.05s-18.336 12.227-38.703 17.313c-20.367 5.096-26.478 5.096-26.478 5.096s-4.073-7.134-17.312-7.134-13.238 7.134-13.238 13.238c0 6.113 7.129 7.129 15.277 7.129s15.271-4.068 15.271-4.068 15.277-1.021 27.5-4.072c12.221-3.057 35.643-12.224 35.643-12.224" fill="#010101"/>
    <path transform="translate(295.94,180.54)" d="m273.22 57.887 7.664 0.016c3.656 5e-3 6.674 3.027 6.674 6.686v37.621c0 3.664-3.018 6.672-6.674 6.664l-15.318-0.027c-3.664-4e-3 -6.682-3.022-6.682-6.688v-37.621c0-3.66 3.018-6.668 6.682-6.66l7.66 0.018z" fill="#fff" stroke="#010101" stroke-linecap="round" stroke-linejoin="round" stroke-miterlimit="14.3" stroke-width="3.42"/>
    <path transform="translate(295.94,180.54)" d="m283.47 73.941c-1.039 5.082-6.173 8.332-11.457 7.25-5.289-1.072-8.741-6.077-7.702-11.163 1.039-5.082 6.172-8.332 11.461-7.25 5.289 1.074 8.735 6.077 7.698 11.163" fill="#aaabaa"/>
    <path transform="translate(295.94,180.54)" d="m284.31 97.395c-1.035 5.086-6.173 8.336-11.457 7.259-5.289-1.082-8.738-6.082-7.703-11.163 1.039-5.087 6.173-8.337 11.461-7.26 5.289 1.081 8.742 6.081 7.699 11.164" fill="#aaabaa"/>
    <path transform="translate(295.94,180.54)" d="m276.08 72.5c0 4.22-2.146 7.646-4.78 7.646-2.642 0-4.78-3.43-4.78-7.646s2.142-7.647 4.78-7.647c2.635-1e-3 4.78 3.429 4.78 7.647" fill="#010101"/>
    <path transform="translate(295.94,180.54)" d="m276.08 72.5c0 4.22-2.146 7.646-4.78 7.646-2.642 0-4.78-3.43-4.78-7.646s2.142-7.647 4.78-7.647c2.64-1e-3 4.78 3.429 4.78 7.647z" fill="none" stroke="#010101" stroke-linecap="round" stroke-linejoin="round" stroke-miterlimit="14.3" stroke-width="3.42"/>
    <path transform="translate(295.94,180.54)" d="m276.72 94.801c0 4.219-2.141 7.647-4.775 7.647-2.643 0-4.781-3.432-4.781-7.647 0-4.224 2.143-7.647 4.781-7.647 2.635-2e-3 4.775 3.424 4.775 7.647" fill="#010101"/>
    <path transform="translate(295.94,180.54)" d="m276.72 94.801c0 4.219-2.141 7.647-4.775 7.647-2.643 0-4.781-3.432-4.781-7.647 0-4.224 2.143-7.647 4.781-7.647 2.64-2e-3 4.78 3.424 4.78 7.647z" fill="none" stroke="#010101" stroke-linecap="round" stroke-linejoin="round" stroke-miterlimit="14.3" stroke-width="3.42"/>
    <path transform="translate(295.94,180.54)" d="m283.47 73.941c-1.039 5.082-6.173 8.332-11.457 7.25-5.289-1.072-8.741-6.077-7.702-11.163 1.039-5.082 6.172-8.332 11.461-7.25 5.29 1.074 8.74 6.077 7.7 11.163z" fill="none" stroke="#010101" stroke-linecap="round" stroke-linejoin="round" stroke-miterlimit="14.3" stroke-width="3.42"/>
    <path transform="translate(295.94,180.54)" d="m284.31 97.395c-1.035 5.086-6.173 8.336-11.457 7.259-5.289-1.082-8.738-6.082-7.703-11.163 1.039-5.087 6.173-8.337 11.461-7.26 5.29 1.081 8.75 6.081 7.7 11.164z" fill="none" stroke="#010101" stroke-linecap="round" stroke-linejoin="round" stroke-miterlimit="14.3" stroke-width="3.42"/>
    <path transform="matrix(.71429 0 0 .71429 340.25 247.93)" d="m126.62 1.4688c-29.827-0.4283-60.086 4.3349-87.526 16.219-11.572 5.812-25.247 13.622-27.285 27.717-9.9461 35.26-13.517 72.385-8.0682 108.76 2.4698 14.88 3.1606 30.57 8.8532 44.68 14.562 25.446 43.578 38.249 71.101 44.623 49.908 10.297 105.45 8.3626 149.65-19.279 13.987-9.3248 27.515-20.468 36.312-34.938 1.6301-3.5664 3.1294-7.6203 2.9375-11.5-4.1655-1.3921-8.8296 2.5731-13.067 3.3397-22.421 8.8125-45.718 15.239-69.668 17.646-10.136 1.7138-19.605 6.745-30.171 5.452-6.3481 0.21579-16.19-1.0491-15.438-9.4688-0.86278-6.1986 2.225-12.726 8.5312-14.188 10.802-3.3329 22.923 0.20575 31.125 7.75 8.0664 2.0092 16.509-1.8636 24.545-2.8756 23.176-4.289 44.802-13.824 65.33-25.124 4.8221-3.7678 3.2867-11.288 4.4422-16.685 1.5187-33.414 3.8583-68.403-9.5095-99.929-2.14-8.716-8.5-15.386-16.81-18.66-26.91-13.562-56.93-20.891-86.85-23.196-12.79-0.4948-25.6-0.3545-38.41-0.3352zm-61 15.812c6.89 0.051 8.899 9.449 4.661 14.094-2.605 4.971-10.758 5.472-12.562-0.375-2.12-5.404 1.796-13.342 7.906-13.719zm-20.932 22.157c11.322 0.03813 17.778 13.848 13.875 23.531-2.4821 10.291-13.537 20.446-24.344 15.75-11.504-6.333-10.311-23.528-2.438-32.25 3.212-3.832 7.872-6.879 12.907-7.031z" color="#000000" fill="#80e5ff" fill-opacity=".62117"/>
    <path transform="matrix(.71429 0 0 .71429 370.25 199.36)" d="m17.219 0.3125c-5.867 1.5166-11.274 5.3808-11.532 11.938-3.5877 16.934-7.0904 34.834-3.4058 52.031 3.6055 1.326 8.8128-1.931 11.998-3.766 1.121-16.534-1.293-33.693 1.846-50.046-0.093-2.6191 5.088-9.3392 1.094-10.156z" color="#000000" fill="#f00"/>
    <path transform="matrix(.71429 0 0 .71429 490.96 197.22)" d="m1.1875 0.15625c-2.3775 3.0779 1.7101 7.6241 2 11.125 4.1609 14.177 1.3281 29.499 2.1875 44.125-2.0057 6.1778 2.854 8.6207 7.875 10 4.6098 2.7536 5.5604-3.9984 5.5625-7.1875 1.043-18.33-1.601-37.121-8.093-54.249-2.5171-2.2328-6.2187-3.6201-9.5315-3.8128z" color="#000000" fill="#f00"/>
    <path transform="matrix(.71429 0 0 .71429 332.39 386.5)" d="m291.03 0.34375c-4.78 7.0302-6.07 16.405-13.33 21.801-30.96 31.605-75.53 46.981-119.17 48.826-40.58 1.561-83.522-4-117.59-27.283-13.855-9.777-26.308-23.229-31.628-39.532-3.2748-3.2366-10.697-0.6415-8.4682 4.6252 3.8401 13.912 12.076 26.341 20.781 37.688 11.745 11.062 28.142 15.069 42.531 21.656 23.468 9.7768 48.889 15.487 74.5 14.735 21.466 0.58412 43.206-0.03268 63.688-7.1097 23.528-7.5357 46.725-17.401 67.392-30.821 10.44-8.566 20.63-18.221 27.38-29.991-0.16-3.112-3.01-5.5287-2.68-8.9692-0.45-1.7966-0.43-6.5345-3.41-5.625z" color="#000000" fill="#e2e0f7"/>
    <path transform="matrix(.71429 0 0 .71429 543.82 347.93)" d="m7.0625 0.34375c-2.9283 5.0586-2.0906 12.19-3.6828 17.951-0.6303 6.18-2.6059 12.357-3.0047 18.424 3.7225 0.225 12.007 2.333 12.375-3.719 1.211-9.955 3.759-20.136 3.062-30.25-1.594-2.8107-6.0551-2.1184-8.7495-2.4062z" color="#000000" fill="#fff"/>
    <path transform="translate(295.94,180.54)" d="m35.979 119.87s0.909-28.229 3.646-35.521c2.733-7.285 12.75-4.551 12.75-4.551s-7.289 11.84-9.104 30.051c-1.187 11.78 0.906 14.57-7.292 10.02z" fill="none" stroke="#010101" stroke-linecap="round" stroke-linejoin="round" stroke-miterlimit="11.5" stroke-width="2.564"/>
    <ellipse cx="421.21" cy="597.51" rx="39.837" ry="40.189" fill="#1a5dad" stroke="#ff1212" stroke-linecap="round" stroke-width="1.9742"/>
    <path d="m379.22 621.71c36.888-12.385 57.131-35.867 83.904-54.996-21.387 24.208-37.134 52.646-64.162 72.623" fill="none" stroke="#f00" stroke-width="3.9484px"/>
    <g fill="#fff" stroke-width="1px">
     <path d="m386.82 601.98 4.065-0.25465q0.13204 0.99031 0.53759 1.509 0.66021 0.8394 1.8863 0.8394 0.91485 0 1.4053-0.42442 0.49987-0.43385 0.49987-0.99974 0-0.53759-0.47157-0.96201-0.47158-0.42442-2.1881-0.80168-2.8106-0.63191-4.0084-1.6788-1.2072-1.0469-1.2072-2.6691 0-1.0658 0.61305-2.0089 0.62248-0.95258 1.858-1.4902 1.245-0.54703 3.4048-0.54703 2.6503 0 4.0367 0.99031 1.3959 0.98088 1.6599 3.1313l-4.0272 0.23579q-0.16034-0.93372-0.67907-1.3581-0.5093-0.42441-1.4147-0.42441-0.74509 0-1.1224 0.32067-0.37726 0.31124-0.37726 0.76395 0 0.3301 0.31124 0.59419 0.30181 0.27351 1.4336 0.5093 2.8012 0.60361 4.0084 1.2261 1.2167 0.61305 1.7637 1.5279 0.55646 0.91486 0.55646 2.0466 0 1.3298-0.73566 2.4522t-2.0561 1.7071q-1.3204 0.57533-3.3293 0.57533-3.5274 0-4.8855-1.3581t-1.5373-3.4519z"/>
     <path d="m401.5 592.73h7.1019q2.3202 0 3.4708 1.1035 1.1601 1.1035 1.1601 3.1407 0 2.0938-1.2638 3.2727-1.2544 1.1789-3.8386 1.1789h-2.339v5.1307h-4.2913v-13.827zm4.2913 5.8947h1.0469q1.2355 0 1.7354-0.42442 0.49987-0.43385 0.49987-1.1035 0-0.65077-0.43384-1.1035-0.43385-0.45271-1.6317-0.45271h-1.2167v3.0841z"/>
     <path d="m422.38 604.27h-4.8667l-0.66964 2.2824h-4.3668l5.1968-13.827h4.6592l5.1968 13.827h-4.4705l-0.67907-2.2824zm-0.896-2.9898-1.5279-4.9704-1.5185 4.9704h3.0464z"/>
     <path d="m437.76 600.9 3.7443 1.1318q-0.37726 1.5751-1.1884 2.6314t-2.0183 1.5939q-1.1978 0.5376-3.0558 0.5376-2.2541 0-3.6877-0.65078-1.4242-0.6602-2.4616-2.3107-1.0375-1.6505-1.0375-4.2253 0-3.4331 1.8203-5.2722 1.8297-1.8486 5.1685-1.8486 2.6125 0 4.1027 1.0563 1.4996 1.0563 2.2258 3.2444l-3.7726 0.83941q-0.19806-0.63191-0.41499-0.92429-0.3584-0.49044-0.87713-0.75452t-1.1601-0.26408q-1.4525 0-2.2258 1.1695-0.58476 0.8677-0.58476 2.7257 0 2.3013 0.69794 3.1596 0.69793 0.84883 1.9618 0.84883 1.2261 0 1.8486-0.6885 0.63191-0.6885 0.91485-1.9995z"/>
     <path d="m443.58 592.73h11.45v2.9521h-7.168v2.1976h6.6492v2.82h-6.6492v2.7257h7.3754v3.1313h-11.657v-13.827z"/>
    </g>
    <ellipse transform="matrix(.88175 -.47172 .47172 .88175 0 0)" cx="92.406" cy="725.34" rx="15.512" ry="34.901" fill="none" stroke="#fff" stroke-linecap="round" stroke-width=".78969"/>
    <rect x="388.38" y="518.77" width="29.613" height="18.332" ry="9.166" fill="#666" stroke="#000" stroke-linecap="round" stroke-width=".78969"/>
    <rect x="469.02" y="514.79" width="40.389" height="36.159" ry="18.079" fill="#666" stroke="#000" stroke-linecap="round" stroke-width="1.2952"/>
   </g>
  </g>
 </g>
</svg>
